<?xml version="1.0" encoding="utf-8"?>
<!-- Generator: Adobe Illustrator 26.3.1, SVG Export Plug-In . SVG Version: 6.00 Build 0)  -->
<svg version="1.1" id="Layer_1" xmlns="http://www.w3.org/2000/svg" xmlns:xlink="http://www.w3.org/1999/xlink" x="0px" y="0px"
	 viewBox="0 0 600 600" style="enable-background:new 0 0 600 600;" xml:space="preserve">
<style type="text/css">
	.st0{fill:#CB2C30;}
</style>
<path class="st0" d="M501.9,365.1H364.1v137.8c0,7.4-5,12.4-12.4,12.4h-103c-7.4,0-12.4-5-12.4-12.4V363.9H97.2
	c-7.4,0-12.4-5-12.4-12.4v-103c0-7.4,5-12.4,12.4-12.4h139.1V96.9c0-7.4,5-12.4,12.4-12.4h103c7.4,0,12.4,5,12.4,12.4V236h139.1
	c7.4,0,12.4,5,12.4,12.4v103C514.3,358.9,509.4,365.1,501.9,365.1z M489.5,260.9H351.7c-7.4,0-12.4-5-12.4-12.4V109.3H261v139.1
	c0,7.4-5,12.4-12.4,12.4h-139v78.2h139.1c7.4,0,12.4,5,12.4,12.4v139.1h78.2V351.5c0-7.4,5-12.4,12.4-12.4h139.1v-78.2H489.5z"/>
<path class="st0" d="M299.5,598.5C135.7,598.5,1.6,464.4,1.6,300.6S135.7,2.6,299.5,2.6s297.9,134.1,297.9,297.9
	S463.4,598.5,299.5,598.5z M299.5,27.4c-150.2,0-273.1,122.9-273.1,273.1c0,150.2,122.9,273.1,273.1,273.1
	c150.2,0,273.1-122.9,273.1-273.1C572.7,150.3,449.8,27.4,299.5,27.4z"/>
</svg>
