<?xml version="1.0" encoding="utf-8"?>
<!-- Generator: Adobe Illustrator 26.3.1, SVG Export Plug-In . SVG Version: 6.00 Build 0)  -->
<svg version="1.1" id="Layer_1" xmlns="http://www.w3.org/2000/svg" xmlns:xlink="http://www.w3.org/1999/xlink" x="0px" y="0px"
	 viewBox="0 0 600 600" style="enable-background:new 0 0 600 600;" xml:space="preserve">
<style type="text/css">
	.st0{fill:#CB2C30;}
</style>
<path class="st0" d="M591,599.6h-36.2c-5.2,0-9.4-4.2-9.4-9.4V382.1c0-5.2,4.2-9.4,9.4-9.4H591c5.2,0,9.4,4.2,9.4,9.4v208.1
	C600.4,595.4,596.2,599.6,591,599.6z M564.2,580.8h17.5V391.4h-17.5V580.8z"/>
<path class="st0" d="M46.5,599.6H10.3c-5.2,0-9.4-4.2-9.4-9.4V257.9c0-5.2,4.2-9.4,9.4-9.4h36.2c5.2,0,9.4,4.2,9.4,9.4v332.2
	C55.8,595.4,51.7,599.6,46.5,599.6z M19.6,580.9h17.5V267.4H19.6V580.9z"/>
<path class="st0" d="M554.8,560.6H46.5c-5.2,0-9.4-4.2-9.4-9.4V440.5c0-5.2,4.2-9.4,9.4-9.4h120.4c5.2,0,9.4,4.2,9.4,9.4
	c0,5.2-4.2,9.4-9.4,9.4h-111v92.1h499.1c5.2,0,9.4,4.2,9.4,9.4C564.2,556.4,560,560.6,554.8,560.6z"/>
<path class="st0" d="M166.8,449.8H46.5c-5.2,0-9.4-4.2-9.4-9.4v-41.4c0-5.2,4.2-9.4,9.4-9.4h120.4c5.2,0,9.4,4.2,9.4,9.4v41.4
	C176.2,445.7,172,449.8,166.8,449.8z M55.8,431.1h101.6v-22.6H55.8V431.1z"/>
<path class="st0" d="M109.5,379.7c-23.6,0-42.7-19.2-42.7-42.7c0-23.6,19.2-42.7,42.7-42.7s42.7,19.2,42.7,42.7
	C152.1,360.5,133,379.7,109.5,379.7z M109.5,313.1c-13.2,0-23.9,10.8-23.9,23.9c0,13.2,10.8,23.9,23.9,23.9
	c13.2,0,23.9-10.8,23.9-23.9C133.4,323.9,122.7,313.1,109.5,313.1z"/>
<path class="st0" d="M481.9,512.6c-4.7,0-9.5-0.1-14.2-0.2c-29.3-1.1-59-5.4-88.3-13c-6.3-1.7-12.6-3.4-18.7-5.2
	c-18.2-5.2-35.3-10-53.2-11.1c-13.8-0.9-28.1,0.7-41.8,2.2c-13.5,1.4-27,5.3-41.3,9.3c-18.5,5.3-37.8,10.7-57.4,10.7
	c-5.2,0-9.4-4.2-9.4-9.4V377.1c0-23.8,9.3-46.3,26.1-63c16.8-16.8,39.2-26.1,63-26.1h228.4c23.8,0,46.3,9.3,63,26.1
	c16.8,16.8,26.1,39.2,26.1,63v118.8c0,4.4-3.1,8.3-7.5,9.1C532.6,510.1,507.5,512.6,481.9,512.6z M299.4,464.2
	c3.1,0,6.2,0.1,9.3,0.2c19.8,1.2,38.8,6.6,57.2,11.8c5.9,1.7,12.2,3.4,18.3,5.1c54.4,14,110,16.4,161.4,6.9V377.1
	c0-38.9-31.6-70.4-70.4-70.4H246.7c-38.9,0-70.4,31.6-70.4,70.4V486c14-1.3,28.1-5.3,42.9-9.5c14.4-4.1,29.3-8.3,44.4-9.9
	C275.2,465.4,287.2,464.2,299.4,464.2z"/>
</svg>
