<?xml version="1.0" encoding="utf-8"?>
<!-- Generator: Adobe Illustrator 26.3.1, SVG Export Plug-In . SVG Version: 6.00 Build 0)  -->
<svg version="1.1" id="Layer_1" xmlns="http://www.w3.org/2000/svg" xmlns:xlink="http://www.w3.org/1999/xlink" x="0px" y="0px"
	 viewBox="0 0 600 600" style="enable-background:new 0 0 600 600;" xml:space="preserve">
<style type="text/css">
	.st0{fill:#CB2C30;}
</style>
<path class="st0" d="M97.9,598H36.5v-46c-5.8-1.8-14.6-5.8-22-14.3l-0.4-0.6c-2.9-3.6-9.6-12-11-24.6c-1.5-17,8.6-31.9,19.4-39.4
	c18.4-13.4,41.9-9.1,57.2,1.1c9.5,6.1,14.5,14.8,17.1,19.5L98,496V598H97.9z M50.4,584.1H84v-84.4c-2.4-4-5.8-9.7-12-13.6
	c-11-7.4-28.5-10.9-41.5-1.4l-0.1,0.1c-7.2,5-14.5,15.3-13.5,26.6c1,8.5,5.7,14.5,8.1,17.3l0.1,0.1c6.5,7.4,15.3,10.4,19.4,11l6,0.8
	V584.1z"/>
<path class="st0" d="M255.6,598h-61.4V496l1.3-2.2c2.6-4.6,7.7-13.4,17.1-19.5c15.2-10.2,38.7-14.3,57.1-1
	c10.7,7.4,20.9,22.4,19.4,39.3c-1.4,12.8-8.2,21.2-11,24.8l-0.4,0.6c-7.4,8.5-16.2,12.5-22,14.3V598z M208.2,584.1h33.6v-43.6l6-0.8
	c4.2-0.6,12.8-3.6,19.4-11l0.1-0.1c2.2-2.9,7.1-8.8,8.1-17.4c1-11-6.3-21.4-13.5-26.5l-0.1-0.1c-12.8-9.5-30.5-5.8-41.4,1.4
	c-6.3,4-9.7,9.6-12.1,13.8V584.1z"/>
<path class="st0" d="M248.5,477.7l-7.1-12c20.2-11.8,31.7-24.5,31.9-34.7c-1.1-23.7-57.1-43.4-94.7-49.3c-23.1-4-47.8-3.6-71.3,1.1
	c-7.7,1.7-34.5,8.1-57.6,19.2c-14.9,7.2-32.7,18.7-33,31.9c0,4.2,2.6,16,27.8,31.7l-7.4,11.8C8.9,459.9,2.9,444,2.9,434
	c0.3-16.6,14.1-31.5,40.8-44.3c23.8-11.6,50.5-18.1,60.9-20.3c25.2-5.2,51.7-5.6,76.4-1.3c16.8,2.6,42.6,9.1,64.6,19.2
	c27,12.5,41.1,27.2,41.8,43.4v0.3C287.3,446.5,273.9,462.8,248.5,477.7z"/>
<path class="st0" d="M198.7,584.1h-109V598h109V584.1z"/>
<path class="st0" d="M201.8,541.5H90.9v13.9h110.8V541.5z"/>
<path class="st0" d="M555.6,445.2H372.9V317.4h182.7V445.2z M386.8,431.3h154.8v-100H386.8V431.3z"/>
<path class="st0" d="M503.3,464.1h-13.9v-7c0-3.1-9.6-8.9-25.3-8.9c-16.3,0-25.3,6.7-25.3,8.9v7h-13.9v-7c0-13,16.8-22.8,39.3-22.8
	c22.7,0,39.3,9.6,39.3,22.8V464.1z"/>
<path class="st0" d="M590.7,533.5H388.5c-3.9,0-7-3.1-7-7s3.1-7,7-7h202.2c3.9,0,7,3.1,7,7S594.6,533.5,590.7,533.5z"/>
<path class="st0" d="M504.8,504.2h-45.1c-3.9,0-7-3.1-7-7c0-3.9,3.1-7,7-7h45.1c3.9,0,7,3.1,7,7
	C511.8,501.2,508.7,504.2,504.8,504.2z"/>
<path class="st0" d="M504.8,564.7h-45.1c-3.9,0-7-3.1-7-7c0-3.9,3.1-7,7-7h45.1c3.9,0,7,3.1,7,7
	C511.8,561.6,508.7,564.7,504.8,564.7z"/>
<path class="st0" d="M353.2,546.3c-3.9,0-7-3.1-7-7v-29.8c0-3.9,3.1-7,7-7c3.9,0,7,3.1,7,7v29.8
	C360.1,543.2,356.9,546.3,353.2,546.3z"/>
<path class="st0" d="M597.7,598.1H309V458.7h288.7V598.1z M392.4,584.2h191.3V472.6H392.4V584.2z M322.9,584.2h55.6V472.6h-55.6
	V584.2z"/>
</svg>
