<?xml version="1.0" encoding="iso-8859-1"?>
<!-- Generator: Adobe Illustrator 19.0.0, SVG Export Plug-In . SVG Version: 6.00 Build 0)  -->
<svg version="1.1" id="Layer_1" xmlns="http://www.w3.org/2000/svg" xmlns:xlink="http://www.w3.org/1999/xlink" x="0px" y="0px"
	 viewBox="0 0 511.999 511.999" style="enable-background:new 0 0 511.999 511.999;" xml:space="preserve">
<g>
	<g>
		<path d="M481.583,337.888v24.841h-79.975V156.209c0-44.775-36.427-81.202-81.202-81.202h-166.09
			C69.225,75.007,0,144.233,0,229.323v163.823h85.681c2.544,24.599,23.392,43.846,48.652,43.846s46.108-19.247,48.653-43.846
			h203.412h15.209h110.392v-55.258H481.583z M134.334,406.575c-10.2,0-18.498-8.298-18.498-18.498
			c0-8.284,5.472-15.312,12.992-17.661c0.014-0.004,0.029-0.008,0.044-0.012c0.509-0.157,1.029-0.287,1.555-0.401
			c0.131-0.028,0.262-0.055,0.393-0.08c0.432-0.083,0.871-0.148,1.313-0.201c0.153-0.018,0.305-0.041,0.459-0.056
			c0.574-0.054,1.154-0.088,1.742-0.088s1.168,0.034,1.742,0.088c0.154,0.014,0.306,0.038,0.459,0.056
			c0.442,0.053,0.88,0.118,1.312,0.201c0.132,0.025,0.264,0.052,0.394,0.08c0.526,0.114,1.046,0.243,1.554,0.401
			c0.014,0.004,0.029,0.008,0.044,0.012c7.519,2.349,12.992,9.378,12.992,17.661C152.832,398.277,144.534,406.575,134.334,406.575z
			 M371.19,362.728H176.201c-6.192-10.281-15.931-17.844-27.332-21.362c-0.006-0.002-0.012-0.003-0.017-0.005
			c-1.957-0.603-3.96-1.086-6.005-1.443c-0.501-0.088-1.003-0.174-1.509-0.247c-0.405-0.058-0.81-0.107-1.217-0.155
			c-0.618-0.073-1.24-0.133-1.866-0.182c-0.332-0.026-0.662-0.057-0.995-0.076c-0.969-0.058-1.943-0.095-2.926-0.095
			c-0.982,0-1.956,0.038-2.924,0.095c-0.335,0.019-0.666,0.05-0.999,0.076c-0.624,0.05-1.244,0.109-1.862,0.182
			c-0.408,0.048-0.814,0.097-1.22,0.155c-0.504,0.073-1.004,0.158-1.503,0.246c-13.973,2.434-26.102,10.759-33.359,22.811H30.417
			V229.323c0-68.318,55.58-123.898,123.899-123.898h166.089c28.003,0,50.785,22.782,50.785,50.785V362.728z" style="fill: #fff;"/>
	</g>
</g>
<g>
	<g>
		<path d="M320.405,125.702H154.316c-57.137,0-103.621,46.484-103.621,103.62v36.577h300.216v-109.69
			C350.912,139.387,337.227,125.702,320.405,125.702z M140.629,235.482H81.112v-6.159c0-35.685,25.673-65.471,59.516-71.901V235.482
			z M230.562,235.483h-59.516V156.12h59.516V235.483z M320.495,235.482h-59.516v-79.363h59.442c0.023,0.01,0.065,0.051,0.074,0.09
			V235.482z" style="fill: #fff;"/>
	</g>
</g>
<g>
</g>
<g>
</g>
<g>
</g>
<g>
</g>
<g>
</g>
<g>
</g>
<g>
</g>
<g>
</g>
<g>
</g>
<g>
</g>
<g>
</g>
<g>
</g>
<g>
</g>
<g>
</g>
<g>
</g>
</svg>
